<svg
      width="20"
      height="20"
      viewBox="0 0 20 20"
      fill="none"
      xmlns="http://www.w3.org/2000/svg"
      >
      <path
        fillRule="evenodd"
        clipRule="evenodd"
        d="M1.6665 4.86119C1.6665 4.47766 1.97742 4.16675 2.36095 4.16675H17.6387C18.0223 4.16675 18.3332 4.47766 18.3332 4.86119C18.3332 5.24472 18.0223 5.55564 17.6387 5.55564H2.36095C1.97742 5.55564 1.6665 5.24472 1.6665 4.86119ZM1.6665 9.7223C1.6665 9.33877 1.97742 9.02786 2.36095 9.02786H17.6387C18.0223 9.02786 18.3332 9.33877 18.3332 9.7223C18.3332 10.1058 18.0223 10.4167 17.6387 10.4167H2.36095C1.97742 10.4167 1.6665 10.1058 1.6665 9.7223ZM1.6665 14.5834C1.6665 14.1999 1.97742 13.889 2.36095 13.889H17.6387C18.0223 13.889 18.3332 14.1999 18.3332 14.5834C18.3332 14.9669 18.0223 15.2779 17.6387 15.2779H2.36095C1.97742 15.2779 1.6665 14.9669 1.6665 14.5834Z"
        fill="#121212"
      />
    </svg>